<?xml version="1.0" encoding="UTF-8"?>
<svg version="1.1" xmlns="http://www.w3.org/2000/svg" width="947" height="359">
<path d="M0 0 C4.74606144 4.17214234 9.2638443 8.55215185 13.72851562 13.0234375 C15.0990003 14.39165691 16.48486244 15.74544718 17.90820312 17.05859375 C48.98508749 46.18882764 64.8950372 92.66872368 66.29492188 134.3046875 C66.7304218 161.1568411 62.18186325 187.8253479 51.09179688 212.3828125 C50.7737207 213.10887695 50.45564453 213.83494141 50.12792969 214.58300781 C41.18508555 234.92309489 29.23671908 252.14307664 14.09179688 268.3828125 C13.39441406 269.13433594 12.69703125 269.88585937 11.97851562 270.66015625 C-8.2004018 291.65065719 -35.9668182 306.04407607 -63.90820312 313.3828125 C-65.03162109 313.68010254 -65.03162109 313.68010254 -66.17773438 313.98339844 C-115.04176166 326.49478366 -165.72208641 317.42518555 -208.90820312 292.3828125 C-228.42066425 280.33315679 -245.37298425 263.76773526 -258.90820312 245.3828125 C-259.32424805 244.82706543 -259.74029297 244.27131836 -260.16894531 243.69873047 C-287.31953334 207.02067599 -297.67074521 158.79023701 -291.31054688 113.94726562 C-288.88545739 98.49026324 -284.98137185 83.80144549 -278.90820312 69.3828125 C-278.60543457 68.65900391 -278.30266602 67.93519531 -277.99072266 67.18945312 C-273.14572574 55.81178963 -267.01453581 45.48865248 -259.90820312 35.3828125 C-259.4926416 34.78936035 -259.07708008 34.1959082 -258.64892578 33.58447266 C-230.89323185 -5.35784242 -188.32223214 -29.70897259 -141.70507812 -37.890625 C-92.42398699 -45.72761799 -38.35022277 -32.5015194 0 0 Z " fill="#42ABC7" transform="translate(292.908203125,39.6171875)"/>
<path d="M0 0 C7.23167722 1.31754201 13.33683401 3.67250849 19.9375 6.875 C20.94022949 7.3596875 21.94295898 7.844375 22.97607422 8.34375 C37.7971515 15.68720897 50.66656001 25.05875729 63 36 C64.28975214 37.0648232 65.58105342 38.12777774 66.875 39.1875 C70.65353001 42.44867627 73.79755382 46.18418208 77 50 C77.763125 50.87527344 78.52625 51.75054687 79.3125 52.65234375 C110.25271176 88.668684 125.16625752 135.60502754 121.79345703 182.89599609 C120.13168314 201.93571549 115.7498496 220.13856216 109 238 C108.67 238 108.34 238 108 238 C107.91363281 237.29875 107.82726562 236.5975 107.73828125 235.875 C106.53018885 227.71760545 104.13421096 221.8515209 98.25 216 C93.8981101 213.32191391 90.95879348 212.97120073 86 214 C78.64915972 217.92034587 72.844346 224.93585027 67.05827522 230.82196045 C65.24993409 232.66081652 63.43469592 234.49261197 61.61753845 236.32275391 C56.45709596 241.52266122 51.30962828 246.73534395 46.1652832 251.95117188 C43.00481756 255.15459297 39.83687941 258.35047555 36.66457939 261.54217529 C35.46607014 262.7511738 34.27047846 263.96307252 33.0780201 265.17803955 C21.29096776 277.18731062 10.86411277 285.72759793 -6.625 286.25 C-23.85117905 286.01606424 -35.6760478 278.01199814 -47.26171875 266.12890625 C-48.42507235 264.91984131 -49.58782946 263.71020216 -50.75 262.5 C-53.07339371 260.10994893 -55.40356062 257.72656208 -57.734375 255.34375 C-58.2930275 254.77032364 -58.85167999 254.19689728 -59.42726135 253.60609436 C-62.75396442 250.20830883 -66.17641158 247.02963575 -69.80517578 243.95458984 C-74.80115415 239.50544604 -79.46092914 234.68548913 -84.18188477 229.94848633 C-86.05829475 228.06671726 -87.93998969 226.19035262 -89.82226562 224.31445312 C-95.27817723 218.86116099 -100.67282168 213.41809121 -105.67260742 207.53686523 C-107.37593658 205.56473776 -109.22469165 203.78104214 -111.125 202 C-119.50903071 193.64840268 -123.04906503 184.40952749 -123.375 172.5625 C-123.00408933 159.50335365 -118.84910926 147.97086166 -110 138.25 C-99.56529001 128.44876313 -86.18188985 124.398192 -72.078125 124.6875 C-55.055508 126.41568447 -43.58519274 137.6216857 -32 149 C-30.85144531 150.12583496 -30.85144531 150.12583496 -29.6796875 151.27441406 C-27.27958486 153.63444984 -24.88751586 156.00223403 -22.5 158.375 C-21.75878906 159.11137695 -21.01757812 159.84775391 -20.25390625 160.60644531 C-16.13659933 164.73678168 -12.23531835 168.95366908 -8.52539062 173.45556641 C-6.97286434 175.26057481 -6.97286434 175.26057481 -4 176 C-3.60514656 175.11667999 -3.60514656 175.11667999 -3.20231628 174.21551514 C-1.94533545 171.89926932 -0.63338087 170.39808541 1.23706055 168.55175781 C1.89502121 167.8971759 2.55298187 167.24259399 3.23088074 166.56817627 C3.94230728 165.87020935 4.65373383 165.17224243 5.38671875 164.453125 C6.12195267 163.72309265 6.85718658 162.9930603 7.61470032 162.24090576 C9.9676025 159.90580512 12.32705672 157.57747553 14.6875 155.25 C17.02926472 152.93600133 19.36950514 150.6205138 21.70674133 148.30194092 C23.15979808 146.86097625 24.61551808 145.42269026 26.0743866 143.98760986 C30.02554171 140.07475641 33.75700022 136.04847091 37.3870697 131.83679199 C39.62544131 129.28775248 42.0107374 126.91222723 44.43359375 124.5390625 C45.42266355 123.56263927 46.41159146 122.5860723 47.40039062 121.609375 C48.91638182 120.11805989 50.43397264 118.62844958 51.9543457 117.14160156 C67.27465889 103.09908076 67.27465889 103.09908076 73.51904297 84.15283203 C73.5096167 83.11811768 73.5096167 83.11811768 73.5 82.0625 C73.49500488 81.3288623 73.49000977 80.59522461 73.48486328 79.83935547 C72.84631537 59.26930523 60.87538158 42.14559094 46.5546875 28.24609375 C32.92990649 16.26711962 16.76672357 7.68049142 0 1 C0 0.67 0 0.34 0 0 Z " fill="#B0DDF0" transform="translate(237,10)"/>
<path d="M0 0 C9.57 0 19.14 0 29 0 C35.74443842 10.11665762 35.74443842 10.11665762 38.59375 15.16015625 C39.22482666 16.27197266 39.85590332 17.38378906 40.50610352 18.52929688 C40.9937468 19.39349243 40.9937468 19.39349243 41.49124146 20.27514648 C43.23563257 23.3659194 44.99142938 26.45020775 46.74609375 29.53515625 C47.27891212 30.47278305 47.27891212 30.47278305 47.82249451 31.42935181 C53.4591611 41.33784514 59.24037352 51.16269931 65 61 C67.31 64.96 69.62 68.92 72 73 C72.33 48.91 72.66 24.82 73 0 C79.6 0 86.2 0 93 0 C93 34.32 93 68.64 93 104 C83.43 104 73.86 104 64 104 C55.84256067 93.68118785 55.84256067 93.68118785 53.8828125 88.6640625 C51.11792557 82.0741867 47.69108059 75.9894021 44.07022095 69.84484863 C42.48809482 67.14467904 40.95236908 64.41842555 39.41015625 61.6953125 C33.33498236 51.09469906 27.15632133 40.5536937 21 30 C21 54.42 21 78.84 21 104 C14.07 104 7.14 104 0 104 C0 69.68 0 35.36 0 0 Z " fill="#4E9EBA" transform="translate(760,124)"/>
<path d="M0 0 C9.57 0 19.14 0 29 0 C31.13855469 6.14302734 31.13855469 6.14302734 33.3203125 12.41015625 C35.00088909 17.23374775 36.68235867 22.05702755 38.36412811 26.88020325 C39.12126735 29.0517942 39.87817207 31.22346681 40.6350708 33.3951416 C48.02889137 54.60590212 48.02889137 54.60590212 55.578125 75.76171875 C55.91121674 76.68457169 56.24430847 77.60742462 56.5874939 78.5582428 C58.09554817 82.72956463 59.61158864 86.89781562 61.13720703 91.06274414 C61.66179692 92.50536634 62.18637462 93.94799298 62.7109375 95.390625 C63.38068604 97.2164209 63.38068604 97.2164209 64.06396484 99.07910156 C65 102 65 102 65 105 C56.75 105 48.5 105 40 105 C37.69 97.41 35.38 89.82 33 82 C14.685 81.505 14.685 81.505 -4 81 C-4.99 84.96 -5.98 88.92 -7 93 C-8.24234359 97.03865543 -9.62063495 101.00459777 -11 105 C-19.25 105 -27.5 105 -36 105 C-34.05191441 97.85701949 -32.05150507 90.97560276 -29.55078125 84.04296875 C-29.05561508 82.65359856 -29.05561508 82.65359856 -28.55044556 81.23616028 C-27.84196816 79.24919712 -27.13173859 77.26285799 -26.41989136 75.27709961 C-24.5187471 69.97294539 -22.6309982 64.66402484 -20.7421875 59.35546875 C-20.35334885 58.26354218 -19.96451019 57.1716156 -19.56388855 56.04660034 C-15.29718628 44.05121785 -11.11199523 32.02772337 -6.9375 20 C-6.58466949 18.98384613 -6.23183899 17.96769226 -5.86831665 16.92074585 C-3.91030619 11.28115449 -1.95478081 5.6407134 0 0 Z M14 20 C12.28927233 25.67778078 10.58032223 31.35609228 8.87304688 37.03491211 C8.29150944 38.96832894 7.70947899 40.90159755 7.12695312 42.8347168 C6.29168352 45.60687434 5.45816502 48.37955306 4.625 51.15234375 C4.36251465 52.02213364 4.1000293 52.89192352 3.82958984 53.78807068 C2.56323553 57.33702475 2.56323553 57.33702475 2 61 C10.25 61 18.5 61 27 61 C25.31386309 53.41238392 23.34331 46.04324105 21.11376953 38.61352539 C20.49461201 36.54449504 19.88584832 34.47257559 19.27734375 32.40039062 C18.88343962 31.08054184 18.48893061 29.7608734 18.09375 28.44140625 C17.73990234 27.25232666 17.38605469 26.06324707 17.02148438 24.83813477 C16.19584155 21.91193092 16.19584155 21.91193092 14 20 Z " fill="#4E9EBA" transform="translate(513,123)"/>
<path d="M0 0 C20.13 0 40.26 0 61 0 C61 6.27 61 12.54 61 19 C48.46 19 35.92 19 23 19 C23 25.93 23 32.86 23 40 C34.55 40 46.1 40 58 40 C58 46.27 58 52.54 58 59 C46.45 59 34.9 59 23 59 C23 67.58 23 76.16 23 85 C35.54 85 48.08 85 61 85 C61 91.27 61 97.54 61 104 C40.87 104 20.74 104 0 104 C0 69.68 0 35.36 0 0 Z " fill="#4E9EBA" transform="translate(679,124)"/>
<path d="M0 0 C7.92 0 15.84 0 24 0 C29.16269503 15.18439716 34.05759225 30.43412875 38.8125 45.75 C39.09644623 46.66078308 39.38039246 47.57156616 39.67294312 48.50994873 C42.71635066 58.28124148 45.71110441 68.01903959 48 78 C48.19408447 77.30704834 48.38816895 76.61409668 48.58813477 75.90014648 C55.77078655 50.40224643 63.86853529 25.20861196 72 0 C79.92 0 87.84 0 96 0 C94.21646155 6.53964097 92.45779812 12.90983998 90.2421875 19.28515625 C89.98158035 20.04468597 89.72097321 20.8042157 89.45246887 21.58676147 C88.59642621 24.07975725 87.73570211 26.57110949 86.875 29.0625 C85.95152265 31.74773521 85.02929405 34.43339722 84.10716248 37.11909485 C83.45337873 39.02310548 82.7992062 40.92698265 82.14466858 42.83073425 C79.52251225 50.46182257 76.92348848 58.10062466 74.33203125 65.7421875 C73.94442627 66.8847551 73.55682129 68.02732269 73.1574707 69.20451355 C71.61832609 73.74217613 70.07947408 78.27993619 68.54266357 82.81838989 C67.47111756 85.98222315 66.39783239 89.14546163 65.32421875 92.30859375 C64.84079765 93.73853165 64.84079765 93.73853165 64.34761047 95.19735718 C64.05202744 96.06736359 63.7564444 96.93737 63.4519043 97.83374023 C63.06557076 98.97394875 63.06557076 98.97394875 62.6714325 100.13719177 C62 102 62 102 61 104 C52.42 104 43.84 104 35 104 C31.32215142 93.0979809 27.64458181 82.19586781 23.96748161 71.29359627 C22.25941423 66.22936533 20.55123225 61.16517312 18.84277344 56.10107422 C17.18908003 51.1992925 15.53570713 46.29740276 13.88254166 41.39544296 C13.25682744 39.54025422 12.63100439 37.68510219 12.0050621 35.82999039 C7.97811213 23.89497611 3.97687373 11.95180294 0 0 Z " fill="#4E9EBA" transform="translate(571,124)"/>
<path d="M0 0 C-0.69996754 4.0921179 -1.88841061 7.85249219 -3.3125 11.75 C-3.92544922 13.47476563 -3.92544922 13.47476563 -4.55078125 15.234375 C-6 18 -6 18 -7.74609375 19.0390625 C-11.07048942 18.98144732 -13.66713669 17.84333681 -16.75 16.625 C-26.01658842 13.13824169 -33.55781823 11.78011727 -42.9140625 15.828125 C-49.26686897 19.57823984 -52.495025 27.00025524 -54.56005859 33.8605957 C-55.45574596 38.21626072 -55.22756735 42.69455198 -55.25 47.125 C-55.270625 48.12015625 -55.29125 49.1153125 -55.3125 50.140625 C-55.35859267 58.96737113 -54.13782774 68.23265147 -48 75 C-40.07811209 81.19616544 -30.56152063 81.11645289 -21 80 C-15.22206039 79.01417389 -9.66795195 77.52415515 -4 76 C-4 82.6 -4 89.2 -4 96 C-21.5997835 101.24608931 -40.76994945 104.72305292 -57.9375 95.6875 C-59.31379126 94.82604362 -60.66984264 93.93111015 -62 93 C-62.62390625 92.56945312 -63.2478125 92.13890625 -63.890625 91.6953125 C-73.14563694 84.57297723 -77.52853829 72.98097442 -79.58984375 61.80078125 C-81.61496268 43.0346792 -80.80737238 24.69509869 -68.890625 9.26953125 C-51.1519154 -11.43582462 -23.31150686 -10.47067683 0 0 Z " fill="#4E9EBA" transform="translate(473,129)"/>
<path d="M0 0 C26.07 0 52.14 0 79 0 C79 6.27 79 12.54 79 19 C69.76 19 60.52 19 51 19 C51 47.05 51 75.1 51 104 C43.41 104 35.82 104 28 104 C28 75.95 28 47.9 28 19 C18.76 19 9.52 19 0 19 C0 12.73 0 6.46 0 0 Z " fill="#4E9EBA" transform="translate(868,124)"/>
<path d="M0 0 C0.99 0.495 0.99 0.495 2 1 C1.03320312 1.89460938 0.06640625 2.78921875 -0.9296875 3.7109375 C-4.96913754 7.4569877 -8.98886542 11.22366354 -13 15 C-13.94746094 15.89074219 -14.89492188 16.78148438 -15.87109375 17.69921875 C-48.28353171 49.0744587 -64.07248935 94.45042153 -65.0625 138.79980469 C-65.45845011 185.60440762 -48.19212686 230.06498729 -16 264 C-15.53787109 264.49467773 -15.07574219 264.98935547 -14.59960938 265.49902344 C8.24631542 289.82708883 37.25919308 304.71000773 69 314 C63.68747131 315.82579833 59.09900467 313.42202845 54 311.6875 C52.39717163 311.14488525 52.39717163 311.14488525 50.76196289 310.59130859 C25.35142341 301.70808727 4.60491899 287.22336429 -15 269 C-15.66515625 268.38898438 -16.3303125 267.77796875 -17.015625 267.1484375 C-23.4113161 261.03873259 -28.73702576 254.08225084 -34 247 C-34.42039551 246.43990234 -34.84079102 245.87980469 -35.27392578 245.30273438 C-62.4146944 208.62660243 -72.76143384 160.39961078 -66.40234375 115.56445312 C-63.97725427 100.10745074 -60.07316873 85.41863299 -54 71 C-53.69723145 70.27619141 -53.39446289 69.55238281 -53.08251953 68.80664062 C-48.23752261 57.42897713 -42.10633269 47.10583998 -35 37 C-34.58443848 36.40654785 -34.16887695 35.8130957 -33.74072266 35.20166016 C-24.49690552 22.2322262 -12.74881043 9.54870417 0 0 Z " fill="#E9F5FA" transform="translate(68,38)"/>
<path d="M0 0 C3.05044949 1.3540006 5.0500775 2.84588894 7.328125 5.2734375 C7.95436768 5.92739502 8.58061035 6.58135254 9.22583008 7.25512695 C9.89380615 7.95468506 10.56178223 8.65424316 11.25 9.375 C33.62937359 32.18342012 61.59792537 46.10183182 92 55 C86.68747131 56.82579833 82.09900467 54.42202845 77 52.6875 C75.93144775 52.32575684 74.86289551 51.96401367 73.76196289 51.59130859 C45.97877823 41.87863883 19.27152341 24.44755659 0 2 C0 1.34 0 0.68 0 0 Z " fill="#D4EDF8" transform="translate(45,297)"/>
<path d="M0 0 C0.93423645 3.01031744 1.04449911 3.86650268 0 7 C-0.21608346 8.91669758 -0.3887142 10.83844643 -0.53515625 12.76171875 C-0.62216797 13.87998047 -0.70917969 14.99824219 -0.79882812 16.15039062 C-0.9293457 17.90125977 -0.9293457 17.90125977 -1.0625 19.6875 C-1.15337891 20.86634766 -1.24425781 22.04519531 -1.33789062 23.25976562 C-1.5619806 26.17293532 -1.78254296 29.0863289 -2 32 C-2.33 32 -2.66 32 -3 32 C-5.13434175 9.2721446 -5.13434175 9.2721446 0 0 Z " fill="#D6ECF4" transform="translate(5,142)"/>
<path d="M0 0 C1.46177873 2.92355746 0.5310224 4.74325332 -0.25 7.875 C-0.62898437 9.44894531 -0.62898437 9.44894531 -1.015625 11.0546875 C-1.97404694 13.9223468 -3.04381443 15.72511004 -5 18 C-4.06451613 4.06451613 -4.06451613 4.06451613 0 0 Z " fill="#E9F4F9" transform="translate(9,127)"/>
</svg>
