<svg width="18" height="12" viewBox="0 0 18 12" fill="none" xmlns="http://www.w3.org/2000/svg">
<path fill-rule="evenodd" clip-rule="evenodd" d="M17.6667 1.6665C17.6667 1.11422 17.2189 0.666504 16.6667 0.666504H15.6667C15.1144 0.666504 14.6667 1.11422 14.6667 1.6665V10.3332C14.6667 10.8855 15.1144 11.3332 15.6667 11.3332H16.6667C17.2189 11.3332 17.6667 10.8855 17.6667 10.3332V1.6665ZM11 2.99984H12C12.5523 2.99984 13 3.44755 13 3.99984V10.3332C13 10.8855 12.5523 11.3332 12 11.3332H11C10.4477 11.3332 9.99999 10.8855 9.99999 10.3332V3.99984C9.99999 3.44755 10.4477 2.99984 11 2.99984ZM7.33332 5.33317H6.33332C5.78104 5.33317 5.33332 5.78089 5.33332 6.33317V10.3332C5.33332 10.8855 5.78104 11.3332 6.33332 11.3332H7.33332C7.88561 11.3332 8.33332 10.8855 8.33332 10.3332V6.33317C8.33332 5.78089 7.88561 5.33317 7.33332 5.33317ZM3.66666 8.33317C3.66666 7.78089 3.21894 7.33317 2.66666 7.33317H1.66666C1.11437 7.33317 0.666656 7.78089 0.666656 8.33317V10.3332C0.666656 10.8855 1.11437 11.3332 1.66666 11.3332H2.66666C3.21894 11.3332 3.66666 10.8855 3.66666 10.3332V8.33317Z" fill="black"/>
</svg>
