<svg width="21" height="15" viewBox="0 0 21 15" fill="none" xmlns="http://www.w3.org/2000/svg">
<path fill-rule="evenodd" clip-rule="evenodd" d="M10.3337 3.57406C12.5585 3.57416 14.6981 4.41185 16.3105 5.914C16.4319 6.02997 16.626 6.02851 16.7456 5.91072L17.9062 4.76289C17.9667 4.70315 18.0005 4.62222 18 4.53802C17.9995 4.45382 17.9648 4.37329 17.9035 4.31425C13.6716 0.339912 6.99523 0.339912 2.76331 4.31425C2.70201 4.37325 2.66723 4.45376 2.66666 4.53795C2.6661 4.62215 2.6998 4.7031 2.7603 4.76289L3.92125 5.91072C4.04075 6.02869 4.23497 6.03015 4.35631 5.914C5.96888 4.41175 8.10879 3.57405 10.3337 3.57406ZM10.3321 7.29961C11.5559 7.29954 12.7359 7.75614 13.643 8.5807C13.7657 8.69772 13.959 8.69519 14.0786 8.57498L15.2392 7.39782C15.3003 7.33608 15.3342 7.25231 15.3333 7.16527C15.3324 7.07823 15.2968 6.99518 15.2345 6.93469C12.4722 4.35532 8.19444 4.35532 5.43215 6.93469C5.36976 6.99518 5.33416 7.07827 5.33334 7.16534C5.33252 7.25241 5.36655 7.33617 5.4278 7.39782L6.58805 8.57498C6.70764 8.69519 6.90091 8.69772 7.0236 8.5807C7.93009 7.75669 9.10922 7.30012 10.3321 7.29961ZM12.6666 10.0232C12.6684 10.1087 12.6341 10.191 12.5718 10.2509L10.557 12.242C10.498 12.3006 10.4174 12.3335 10.3334 12.3335C10.2494 12.3335 10.1689 12.3006 10.1098 12.242L8.09471 10.2509C8.03246 10.191 7.99822 10.1086 8.00006 10.0231C8.00191 9.93768 8.03968 9.85676 8.10446 9.79948C9.39116 8.73372 11.2757 8.73372 12.5624 9.79948C12.6271 9.8568 12.6648 9.93775 12.6666 10.0232Z" fill="black"/>
</svg>
